<svg xmlns="http://www.w3.org/2000/svg" viewBox="0 0 100 100" width="100" height="100">
  <!-- Bell pepper body -->
  <path d="M50 20 
           C35 20, 25 30, 25 45
           C25 55, 30 65, 35 70
           C40 75, 45 80, 50 85
           C55 80, 60 75, 65 70
           C70 65, 75 55, 75 45
           C75 30, 65 20, 50 20 Z" 
        fill="#ff6b35" 
        stroke="#e55a2b" 
        stroke-width="2"/>
  
  <!-- Stem -->
  <rect x="47" y="10" width="6" height="12" 
        fill="#4a7c59" 
        rx="3"/>
  
  <!-- Leaf -->
  <ellipse cx="52" cy="14" rx="8" ry="4" 
           fill="#6b8e23" 
           transform="rotate(25 52 14)"/>
  
  <!-- Cute face -->
  <!-- Eyes -->
  <circle cx="42" cy="40" r="4" fill="#2d3436"/>
  <circle cx="58" cy="40" r="4" fill="#2d3436"/>
  
  <!-- Eye highlights -->
  <circle cx="43" cy="38" r="1.5" fill="#ffffff"/>
  <circle cx="59" cy="38" r="1.5" fill="#ffffff"/>
  
  <!-- Cheek blush -->
  <circle cx="32" cy="48" r="3" fill="#ff8a80" opacity="0.6"/>
  <circle cx="68" cy="48" r="3" fill="#ff8a80" opacity="0.6"/>
  
  <!-- Cute smile -->
  <path d="M45 52 Q50 58 55 52" 
        stroke="#2d3436" 
        stroke-width="2.5" 
        fill="none" 
        stroke-linecap="round"/>
  
  <!-- Small dimples -->
  <circle cx="40" cy="54" r="1" fill="#e55a2b" opacity="0.4"/>
  <circle cx="60" cy="54" r="1" fill="#e55a2b" opacity="0.4"/>
</svg>
